<svg width="205" height="201" viewBox="0 0 205 201" fill="none" xmlns="http://www.w3.org/2000/svg">
<path d="M32.0481 69.0248C34.7996 66.8605 38.8165 67.6479 40.5623 70.6932L49.2652 85.877C50.6974 88.3758 50.0825 91.5556 47.8252 93.3321L9.62707 123.393C5.8543 126.36 0.344856 123.651 0.344849 118.83V96.7942C0.345302 95.013 1.15932 93.3307 2.55285 92.2341L32.0481 69.0248Z" fill="white"/>
<path d="M141.134 49.1986C149.068 49.1989 155.501 55.6787 155.501 63.6701C155.501 71.6614 149.068 78.1381 141.134 78.1384C133.2 78.1384 126.767 71.6616 126.767 63.6701C126.767 55.6785 133.2 49.1986 141.134 49.1986Z" fill="white"/>
<path d="M131.898 149.003L170.891 80.974L170.695 80.8619C174.621 74.0138 176.081 66.0103 174.833 58.2033C173.585 50.3968 169.704 43.2617 163.843 38.0011C157.981 32.7405 150.497 29.6751 142.653 29.3228C134.811 28.9707 127.088 31.3522 120.785 36.0657L120.716 35.9733L98.1292 53.7487C95.3776 55.914 91.3576 55.1262 89.6117 52.0803L80.9088 36.8966C79.4765 34.3977 80.0914 31.218 82.3488 29.4415L103.581 12.7311L103.449 12.5531C115.121 3.82328 129.424 -0.588787 143.948 0.0631475C158.472 0.715507 172.331 6.39202 183.185 16.1339C194.04 25.8758 201.229 39.0901 203.541 53.5476C205.852 68.0047 203.146 82.8234 195.877 95.5049L195.775 95.4456L136.986 198.003L131.835 201L126.873 198.115L53.8134 65.7948C50.7246 60.2005 52.153 53.1913 57.1849 49.252C63.418 44.3722 72.5273 46.1389 76.4845 52.9949L131.898 149.003Z" fill="white"/>
</svg>
