<svg width="594" height="400" viewBox="0 0 594 400" fill="none" xmlns="http://www.w3.org/2000/svg">
<path d="M256.773 0.000987214C272.917 0.00100928 287.838 8.69014 295.931 22.8004L333.526 88.3406C333.899 88.8057 334.242 89.3073 334.549 89.8445L351.691 119.831C351.925 120.242 352.131 120.662 352.31 121.088L365.958 144.883L365.997 144.857L451.36 294.206L528.132 159.883L527.748 159.662C535.476 146.14 538.352 130.337 535.895 114.923C533.437 99.5086 525.795 85.4203 514.256 75.0334C502.715 64.6462 487.978 58.5935 472.536 57.898C457.095 57.2028 441.889 61.9049 429.48 71.2117L429.343 71.0295L384.872 106.127C379.455 110.402 371.54 108.847 368.102 102.833L350.967 72.8524C348.147 67.9184 349.358 61.6399 353.802 58.1324L395.607 25.1376L395.346 24.7861C418.328 7.54908 446.489 -1.16256 475.084 0.124685C503.681 1.41277 530.967 12.6211 552.339 31.8564C573.711 51.0918 587.865 77.1836 592.417 105.73C596.967 134.276 591.64 163.535 577.328 188.575L577.126 188.458L461.377 390.957L451.236 396.875L441.466 391.178L323.801 185.32C323.73 185.204 323.654 185.086 323.586 184.968L257.059 68.575C253.017 61.5031 245.545 57.1428 237.461 57.1428H169.715V388.574C169.714 394.885 164.648 400 158.401 400H124.456C118.209 399.999 113.142 394.885 113.141 388.574V57.1428H11.3148C5.06637 57.1428 0.000465379 52.0284 0 45.717V11.4333C0 5.12144 5.06608 0.000987214 11.3148 0.000987214H256.773Z" fill="white"/>
<path d="M254.765 136.29C260.183 132.016 268.092 133.571 271.529 139.584L288.664 169.564C291.484 174.498 290.273 180.777 285.829 184.284L210.621 243.64C203.192 249.499 192.345 244.15 192.345 234.629V191.12C192.346 187.603 193.948 184.282 196.692 182.116L254.765 136.29Z" fill="white"/>
<path d="M469.544 97.1427C485.165 97.1433 497.831 109.938 497.831 125.717C497.831 141.496 485.165 154.284 469.544 154.284C453.923 154.284 441.258 141.496 441.257 125.717C441.257 109.937 453.922 97.1427 469.544 97.1427Z" fill="white"/>
</svg>
