<svg width="281" height="60" viewBox="0 0 281 60" fill="none" xmlns="http://www.w3.org/2000/svg">
<path d="M38.4727 -9.60598e-05C40.8916 -9.27502e-05 43.1272 1.30328 44.3398 3.41983L49.9727 13.2509C50.0286 13.3206 50.08 13.3959 50.126 13.4765L52.6943 17.9745C52.7294 18.036 52.7603 18.099 52.7871 18.163L54.832 21.7323L54.8379 21.7284L67.6279 44.1308L79.1309 23.9823L79.0732 23.9491C80.2312 21.9209 80.6622 19.5504 80.2939 17.2382C79.9257 14.9261 78.7807 12.8128 77.0518 11.2548C75.3226 9.69671 73.1145 8.78881 70.8008 8.68447C68.4873 8.58019 66.209 9.28552 64.3496 10.6815L64.3291 10.6542L57.666 15.9188C56.8543 16.5602 55.6684 16.3268 55.1533 15.4247L52.5859 10.9276C52.1634 10.1875 52.3448 9.24577 53.0107 8.71963L59.2744 3.77041L59.2354 3.71768C62.6787 1.13212 66.8981 -0.174629 71.1826 0.0184586C75.4673 0.211672 79.5556 1.89292 82.7578 4.77822C85.96 7.66355 88.0807 11.5773 88.7627 15.8593C89.4445 20.1411 88.6464 24.5301 86.502 28.286L86.4717 28.2685L69.1289 58.6435L67.6094 59.5312L66.1455 58.6767L48.5156 27.7978C48.5049 27.7805 48.4935 27.7628 48.4834 27.745L38.5156 10.286C37.91 9.22524 36.7904 8.5712 35.5791 8.57119H25.4287V58.286C25.4286 59.2327 24.6695 59.9999 23.7334 59.9999H18.6475C17.7114 59.9998 16.9523 59.2326 16.9521 58.286V8.57119H1.69531C0.759102 8.57119 6.97285e-05 7.80404 0 6.85733V1.71475C0 0.767974 0.759059 -9.60598e-05 1.69531 -9.60598e-05H38.4727Z" fill="white"/>
<path fill-rule="evenodd" clip-rule="evenodd" d="M145.656 19.4999C148.74 19.4999 151.385 20.1874 153.594 21.5624C155.823 22.9165 157.542 24.8437 158.75 27.3437C159.958 29.8228 160.562 32.7083 160.562 35.9999V38.2812H137.284C137.317 40.2729 137.67 41.9916 138.344 43.4374C139.073 44.9374 140.104 46.0937 141.438 46.9062C142.771 47.6978 144.344 48.0937 146.156 48.0937C147.49 48.0937 148.667 47.8957 149.688 47.4999C150.708 47.0832 151.552 46.5416 152.219 45.8749C152.906 45.1874 153.385 44.427 153.656 43.5937L153.75 43.3437H160.188L160.125 43.6874C159.854 44.979 159.344 46.2187 158.594 47.4062C157.844 48.5936 156.865 49.6666 155.656 50.6249C154.469 51.5624 153.062 52.302 151.438 52.8437C149.812 53.3853 148 53.6562 146 53.6562C142.792 53.6562 140.021 52.9687 137.688 51.5937C135.375 50.1978 133.594 48.229 132.344 45.6874C131.115 43.1249 130.5 40.1144 130.5 36.6562V36.6249C130.5 33.2083 131.125 30.2186 132.375 27.6562C133.625 25.0729 135.385 23.0728 137.656 21.6562C139.927 20.2187 142.594 19.4999 145.656 19.4999ZM145.688 25.0312C144.083 25.0312 142.646 25.427 141.375 26.2187C140.104 27.0103 139.104 28.177 138.375 29.7187C137.857 30.8 137.523 32.0605 137.373 33.4999H153.854C153.711 31.9922 153.386 30.69 152.875 29.5937C152.188 28.0521 151.219 26.9061 149.969 26.1562C148.74 25.4062 147.312 25.0312 145.688 25.0312Z" fill="white"/>
<path d="M274.5 20.1249H280.656V25.4999H274.5V43.9374C274.5 45.604 274.865 46.7499 275.594 47.3749C276.323 47.9791 277.406 48.2812 278.844 48.2812C279.198 48.2812 279.521 48.2707 279.812 48.2499C280.125 48.2082 280.406 48.177 280.656 48.1562V53.3749C280.26 53.4374 279.76 53.4999 279.156 53.5624C278.552 53.6249 277.906 53.6562 277.219 53.6562C273.969 53.6562 271.542 52.927 269.938 51.4687C268.354 49.9895 267.562 47.604 267.562 44.3124V25.4999H262.844V20.1249H267.562V11.5624H274.5V20.1249Z" fill="white"/>
<path fill-rule="evenodd" clip-rule="evenodd" d="M199.656 19.4999C202.344 19.4999 204.667 19.9478 206.625 20.8437C208.583 21.7395 210.104 23 211.188 24.6249C212.271 26.2499 212.812 28.1562 212.812 30.3437V52.9999H206V47.8124H205.875C205.229 48.9999 204.396 50.0312 203.375 50.9062C202.354 51.7603 201.198 52.427 199.906 52.9062C198.635 53.3645 197.271 53.5937 195.812 53.5937C193.625 53.5937 191.708 53.177 190.062 52.3437C188.417 51.5103 187.135 50.3436 186.219 48.8437C185.302 47.3437 184.844 45.6144 184.844 43.6562V43.5937C184.844 41.6771 185.323 40.0311 186.281 38.6562C187.24 37.2604 188.625 36.1561 190.438 35.3437C192.271 34.5312 194.479 34.052 197.062 33.9062L206 33.3671V30.9062C206 29.0937 205.437 27.677 204.312 26.6562C203.188 25.6145 201.573 25.0937 199.469 25.0937C197.531 25.0937 195.969 25.5104 194.781 26.3437C193.615 27.177 192.885 28.25 192.594 29.5624L192.531 29.8437H186.156L186.188 29.4999C186.354 27.6041 186.99 25.9061 188.094 24.4062C189.198 22.8854 190.729 21.6874 192.688 20.8124C194.646 19.9374 196.969 19.4999 199.656 19.4999ZM197.969 38.6249C195.948 38.7499 194.385 39.2395 193.281 40.0937C192.198 40.927 191.656 42.0416 191.656 43.4374V43.4999C191.656 44.9374 192.198 46.0728 193.281 46.9062C194.385 47.7395 195.844 48.1562 197.656 48.1562C199.24 48.1562 200.656 47.8332 201.906 47.1874C203.177 46.5416 204.177 45.6561 204.906 44.5312C205.635 43.3853 206 42.104 206 40.6874V38.1239L197.969 38.6249Z" fill="white"/>
<path d="M135.125 13.9687H121.344V52.9999H114.312V13.9687H100.531V7.90615H135.125V13.9687Z" fill="white"/>
<path d="M180.281 19.4999C180.781 19.4999 181.229 19.5312 181.625 19.5937C182.042 19.6353 182.375 19.6874 182.625 19.7499V26.0312C182.354 25.927 181.948 25.8437 181.406 25.7812C180.865 25.6978 180.26 25.6562 179.594 25.6562C178.156 25.6562 176.906 25.9687 175.844 26.5937C174.781 27.1978 173.969 28.0833 173.406 29.2499C172.844 30.3957 172.563 31.7812 172.562 33.4062V52.9999H165.75V20.1249H172.562V25.7499H172.688C173.208 23.8125 174.135 22.2915 175.469 21.1874C176.802 20.0624 178.406 19.4999 180.281 19.4999Z" fill="white"/>
<path d="M226.5 34.1249H226.656L239.812 20.1249H247.781L234.274 34.3153L248.281 52.9999H240.438L229.285 38.37L226.5 41.1562V52.9999H219.719V7.90615H226.5V34.1249Z" fill="white"/>
<path d="M258.719 52.9999H251.906V20.1249H258.719V52.9999Z" fill="white"/>
<path d="M38.1719 20.4433C38.9836 19.8022 40.1686 20.0354 40.6836 20.9374L43.251 25.4345C43.6735 26.1746 43.4921 27.1163 42.8262 27.6425L31.5576 36.5458C30.4446 37.4247 28.8193 36.6224 28.8193 35.1942V28.6679C28.8195 28.1403 29.0596 27.6421 29.4707 27.3173L38.1719 20.4433Z" fill="white"/>
<path d="M70.3525 14.5712C72.6931 14.5713 74.5908 16.4904 74.5908 18.8573C74.5908 21.2241 72.6931 23.1424 70.3525 23.1425C68.0119 23.1425 66.1143 21.2242 66.1143 18.8573C66.1143 16.4904 68.0119 14.5712 70.3525 14.5712Z" fill="white"/>
<path d="M255.312 7.28115C256.417 7.28115 257.344 7.6562 258.094 8.40615C258.865 9.15612 259.25 10.0833 259.25 11.1874C259.25 12.2499 258.865 13.1666 258.094 13.9374C257.344 14.6874 256.417 15.0624 255.312 15.0624C254.229 15.0624 253.302 14.6874 252.531 13.9374C251.76 13.1666 251.375 12.2499 251.375 11.1874C251.375 10.0833 251.76 9.15612 252.531 8.40615C253.302 7.6562 254.229 7.28115 255.312 7.28115Z" fill="white"/>
</svg>
